<svg id="visual" viewBox="0 0 900 200" width="900" height="200" xmlns="http://www.w3.org/2000/svg" xmlns:xlink="http://www.w3.org/1999/xlink" version="1.1"><path d="M0 58L18.8 60.7C37.7 63.3 75.3 68.7 112.8 71.8C150.3 75 187.7 76 225.2 73C262.7 70 300.3 63 337.8 59.8C375.3 56.7 412.7 57.3 450.2 56.8C487.7 56.3 525.3 54.7 562.8 54.8C600.3 55 637.7 57 675.2 60.2C712.7 63.3 750.3 67.7 787.8 68C825.3 68.3 862.7 64.7 881.3 62.8L900 61L900 0L881.3 0C862.7 0 825.3 0 787.8 0C750.3 0 712.7 0 675.2 0C637.7 0 600.3 0 562.8 0C525.3 0 487.7 0 450.2 0C412.7 0 375.3 0 337.8 0C300.3 0 262.7 0 225.2 0C187.7 0 150.3 0 112.8 0C75.3 0 37.7 0 18.8 0L0 0Z" fill="#9198e5"></path><path d="M0 44L18.8 43.8C37.7 43.7 75.3 43.3 112.8 43.5C150.3 43.7 187.7 44.3 225.2 44.7C262.7 45 300.3 45 337.8 45.8C375.3 46.7 412.7 48.3 450.2 51.3C487.7 54.3 525.3 58.7 562.8 57.5C600.3 56.3 637.7 49.7 675.2 46.5C712.7 43.3 750.3 43.7 787.8 46.8C825.3 50 862.7 56 881.3 59L900 62L900 0L881.3 0C862.7 0 825.3 0 787.8 0C750.3 0 712.7 0 675.2 0C637.7 0 600.3 0 562.8 0C525.3 0 487.7 0 450.2 0C412.7 0 375.3 0 337.8 0C300.3 0 262.7 0 225.2 0C187.7 0 150.3 0 112.8 0C75.3 0 37.7 0 18.8 0L0 0Z" fill="#b18ad8"></path><path d="M0 49L18.8 50.2C37.7 51.3 75.3 53.7 112.8 52.3C150.3 51 187.7 46 225.2 43C262.7 40 300.3 39 337.8 38C375.3 37 412.7 36 450.2 35.7C487.7 35.3 525.3 35.7 562.8 37.2C600.3 38.7 637.7 41.3 675.2 43.5C712.7 45.7 750.3 47.3 787.8 48.8C825.3 50.3 862.7 51.7 881.3 52.3L900 53L900 0L881.3 0C862.7 0 825.3 0 787.8 0C750.3 0 712.7 0 675.2 0C637.7 0 600.3 0 562.8 0C525.3 0 487.7 0 450.2 0C412.7 0 375.3 0 337.8 0C300.3 0 262.7 0 225.2 0C187.7 0 150.3 0 112.8 0C75.3 0 37.7 0 18.8 0L0 0Z" fill="#cc7cc3"></path><path d="M0 39L18.8 38.7C37.7 38.3 75.3 37.7 112.8 37.5C150.3 37.3 187.7 37.7 225.2 37C262.7 36.3 300.3 34.7 337.8 33.5C375.3 32.3 412.7 31.7 450.2 30.5C487.7 29.3 525.3 27.7 562.8 27.3C600.3 27 637.7 28 675.2 29.2C712.7 30.3 750.3 31.7 787.8 32.3C825.3 33 862.7 33 881.3 33L900 33L900 0L881.3 0C862.7 0 825.3 0 787.8 0C750.3 0 712.7 0 675.2 0C637.7 0 600.3 0 562.8 0C525.3 0 487.7 0 450.2 0C412.7 0 375.3 0 337.8 0C300.3 0 262.7 0 225.2 0C187.7 0 150.3 0 112.8 0C75.3 0 37.7 0 18.8 0L0 0Z" fill="#de6fa7"></path><path d="M0 17L18.8 17.3C37.7 17.7 75.3 18.3 112.8 18.5C150.3 18.7 187.7 18.3 225.2 18.5C262.7 18.7 300.3 19.3 337.8 20.7C375.3 22 412.7 24 450.2 26C487.7 28 525.3 30 562.8 30C600.3 30 637.7 28 675.2 26.7C712.7 25.3 750.3 24.7 787.8 24C825.3 23.3 862.7 22.7 881.3 22.3L900 22L900 0L881.3 0C862.7 0 825.3 0 787.8 0C750.3 0 712.7 0 675.2 0C637.7 0 600.3 0 562.8 0C525.3 0 487.7 0 450.2 0C412.7 0 375.3 0 337.8 0C300.3 0 262.7 0 225.2 0C187.7 0 150.3 0 112.8 0C75.3 0 37.7 0 18.8 0L0 0Z" fill="#e76687"></path><path d="M0 15L18.8 14.7C37.7 14.3 75.3 13.7 112.8 14.5C150.3 15.3 187.7 17.7 225.2 16.8C262.7 16 300.3 12 337.8 10.3C375.3 8.7 412.7 9.3 450.2 9.7C487.7 10 525.3 10 562.8 10.3C600.3 10.7 637.7 11.3 675.2 12.8C712.7 14.3 750.3 16.7 787.8 17C825.3 17.3 862.7 15.7 881.3 14.8L900 14L900 0L881.3 0C862.7 0 825.3 0 787.8 0C750.3 0 712.7 0 675.2 0C637.7 0 600.3 0 562.8 0C525.3 0 487.7 0 450.2 0C412.7 0 375.3 0 337.8 0C300.3 0 262.7 0 225.2 0C187.7 0 150.3 0 112.8 0C75.3 0 37.7 0 18.8 0L0 0Z" fill="#e66465"></path></svg>