<svg id="visual" viewBox="0 0 960 300" width="960" height="300" xmlns="http://www.w3.org/2000/svg" xmlns:xlink="http://www.w3.org/1999/xlink" version="1.1"><rect x="0" y="0" width="960" height="300" fill="#f5fbff"></rect><path d="M0 112L26.7 116.7C53.3 121.3 106.7 130.7 160 130.2C213.3 129.7 266.7 119.3 320 116.8C373.3 114.3 426.7 119.7 480 119.8C533.3 120 586.7 115 640 118.7C693.3 122.3 746.7 134.7 800 141.8C853.3 149 906.7 151 933.3 152L960 153L960 0L933.3 0C906.7 0 853.3 0 800 0C746.7 0 693.3 0 640 0C586.7 0 533.3 0 480 0C426.7 0 373.3 0 320 0C266.7 0 213.3 0 160 0C106.7 0 53.3 0 26.7 0L0 0Z" fill="#a0caff"></path><path d="M0 92L26.7 96.5C53.3 101 106.7 110 160 112.7C213.3 115.3 266.7 111.7 320 109.8C373.3 108 426.7 108 480 110.7C533.3 113.3 586.7 118.7 640 121.2C693.3 123.7 746.7 123.3 800 119C853.3 114.7 906.7 106.3 933.3 102.2L960 98L960 0L933.3 0C906.7 0 853.3 0 800 0C746.7 0 693.3 0 640 0C586.7 0 533.3 0 480 0C426.7 0 373.3 0 320 0C266.7 0 213.3 0 160 0C106.7 0 53.3 0 26.7 0L0 0Z" fill="#73c2ed"></path><path d="M0 61L26.7 67.2C53.3 73.3 106.7 85.7 160 90.8C213.3 96 266.7 94 320 88.5C373.3 83 426.7 74 480 71C533.3 68 586.7 71 640 71C693.3 71 746.7 68 800 72.2C853.3 76.3 906.7 87.7 933.3 93.3L960 99L960 0L933.3 0C906.7 0 853.3 0 800 0C746.7 0 693.3 0 640 0C586.7 0 533.3 0 480 0C426.7 0 373.3 0 320 0C266.7 0 213.3 0 160 0C106.7 0 53.3 0 26.7 0L0 0Z" fill="#4ab8d3"></path><path d="M0 62L26.7 58C53.3 54 106.7 46 160 46.5C213.3 47 266.7 56 320 58.5C373.3 61 426.7 57 480 55C533.3 53 586.7 53 640 51.5C693.3 50 746.7 47 800 47.2C853.3 47.3 906.7 50.7 933.3 52.3L960 54L960 0L933.3 0C906.7 0 853.3 0 800 0C746.7 0 693.3 0 640 0C586.7 0 533.3 0 480 0C426.7 0 373.3 0 320 0C266.7 0 213.3 0 160 0C106.7 0 53.3 0 26.7 0L0 0Z" fill="#2facb3"></path><path d="M0 16L26.7 19.3C53.3 22.7 106.7 29.3 160 32.5C213.3 35.7 266.7 35.3 320 34.3C373.3 33.3 426.7 31.7 480 30.8C533.3 30 586.7 30 640 30.3C693.3 30.7 746.7 31.3 800 33C853.3 34.7 906.7 37.3 933.3 38.7L960 40L960 0L933.3 0C906.7 0 853.3 0 800 0C746.7 0 693.3 0 640 0C586.7 0 533.3 0 480 0C426.7 0 373.3 0 320 0C266.7 0 213.3 0 160 0C106.7 0 53.3 0 26.7 0L0 0Z" fill="#319f90"></path></svg>