<svg version="1.2" xmlns="http://www.w3.org/2000/svg" viewBox="0 0 900 300" width="900" height="300">
	<title>file-svg</title>
	<style>
		.s0 { opacity: 0;fill: #ffffff } 
		.s1 { fill: #9198e5 } 
		.s2 { fill: #b887d4 } 
		.s3 { fill: #d675b6 } 
		.s4 { fill: #e6688f } 
		.s5 { fill: #e66465 } 
	</style>
	<path id="Layer" class="s0" d="m0 0h900v300h-900z"/>
	<path id="Layer" class="s1" d="m0 125l21.5-1.5c21.5-1.5 64.5-4.5 107.3-9.5 42.9-5 85.5-12 128.4-12.3 42.8-0.4 85.8 6 128.6 7.6 42.9 1.7 85.5-1.3 128.4-4.5 42.8-3.1 85.8-6.5 128.6-6 42.9 0.5 85.5 4.9 128.4 9 42.8 4.2 85.8 8.2 107.3 10.2l21.5 2v-120h-21.5c-21.5 0-64.5 0-107.3 0-42.9 0-85.5 0-128.4 0-42.8 0-85.8 0-128.6 0-42.9 0-85.5 0-128.4 0-42.8 0-85.8 0-128.6 0-42.9 0-85.5 0-128.4 0-42.8 0-85.8 0-107.3 0h-21.5z"/>
	<path id="Layer" class="s2" d="m0 95l21.5-0.7c21.5-0.6 64.5-2 107.3-2.1 42.9-0.2 85.5 0.8 128.4 2.8 42.8 2 85.8 5 128.6 5.3 42.9 0.4 85.5-2 128.4-6 42.8-4 85.8-9.6 128.6-12 42.9-2.3 85.5-1.3 128.4-1.3 42.8 0 85.8-1 107.3-1.5l21.5-0.5v-79h-21.5c-21.5 0-64.5 0-107.3 0-42.9 0-85.5 0-128.4 0-42.8 0-85.8 0-128.6 0-42.9 0-85.5 0-128.4 0-42.8 0-85.8 0-128.6 0-42.9 0-85.5 0-128.4 0-42.8 0-85.8 0-107.3 0h-21.5z"/>
	<path id="Layer" class="s3" d="m0 63l21.5 1.3c21.5 1.4 64.5 4 107.3 5 42.9 1 85.5 0.4 128.4-2 42.8-2.3 85.8-6.3 128.6-7 42.9-0.6 85.5 2 128.4 5.9 42.8 3.8 85.8 8.8 128.6 7 42.9-1.9 85.5-10.5 128.4-13.5 42.8-3 85.8-0.4 107.3 1l21.5 1.3v-62h-21.5c-21.5 0-64.5 0-107.3 0-42.9 0-85.5 0-128.4 0-42.8 0-85.8 0-128.6 0-42.9 0-85.5 0-128.4 0-42.8 0-85.8 0-128.6 0-42.9 0-85.5 0-128.4 0-42.8 0-85.8 0-107.3 0h-21.5z"/>
	<path id="Layer" class="s4" d="m0 46l21.5-1.2c21.5-1.1 64.5-3.5 107.3-4.6 42.9-1.2 85.5-1.2 128.4 1.8 42.8 3 85.8 9 128.6 9.3 42.9 0.4 85.5-5 128.4-4.8 42.8 0.2 85.8 5.8 128.6 8.8 42.9 3 85.5 3.4 128.4 0.4 42.8-3 85.8-9.4 107.3-12.5l21.5-3.2v-40h-21.5c-21.5 0-64.5 0-107.3 0-42.9 0-85.5 0-128.4 0-42.8 0-85.8 0-128.6 0-42.9 0-85.5 0-128.4 0-42.8 0-85.8 0-128.6 0-42.9 0-85.5 0-128.4 0-42.8 0-85.8 0-107.3 0h-21.5z"/>
	<path id="Layer" class="s5" d="m0 28l21.5-1.2c21.5-1.1 64.5-3.5 107.3-3.5 42.9 0 85.5 2.4 128.4 2.7 42.8 0.3 85.8-1.3 128.6-1.5 42.9-0.2 85.5 1.2 128.4-0.2 42.8-1.3 85.8-5.3 128.6-7.5 42.9-2.1 85.5-2.5 128.4-2.3 42.8 0.2 85.8 0.8 107.3 1.2l21.5 0.3v-16h-21.5c-21.5 0-64.5 0-107.3 0-42.9 0-85.5 0-128.4 0-42.8 0-85.8 0-128.6 0-42.9 0-85.5 0-128.4 0-42.8 0-85.8 0-128.6 0-42.9 0-85.5 0-128.4 0-42.8 0-85.8 0-107.3 0h-21.5z"/>
</svg>