<svg id="visual" viewBox="0 0 1920 1920" width="1920" height="1920" xmlns="http://www.w3.org/2000/svg" xmlns:xlink="http://www.w3.org/1999/xlink" version="1.1"><g transform="translate(975.1849794032378 1007.6347139509204)"><path d="M542.5 -645.9C673.7 -536.5 730.3 -337.6 745.8 -146.7C761.3 44.2 735.7 227.1 645.6 363C555.5 498.9 400.9 587.7 240.7 634.3C80.5 681 -85.3 685.4 -232.1 633.7C-379 582 -506.9 474.2 -610.1 333.7C-713.4 193.2 -792 19.8 -779 -151.8C-765.9 -323.5 -661.3 -493.4 -516.2 -600.3C-371.1 -707.3 -185.6 -751.1 10.1 -763.1C205.7 -775.1 411.4 -755.3 542.5 -645.9" fill="#828be9"></path></g></svg>